<?xml version="1.0" encoding="UTF-8" standalone="no"?>
<svg id="Layer_1" xmlns:rdf="http://www.w3.org/1999/02/22-rdf-syntax-ns#" xmlns="http://www.w3.org/2000/svg" enable-background="new 0 0 90 90" xml:space="preserve" height="199.68" viewBox="0 0 520.66809 199.6843" width="520.67" version="1.1" y="0px" x="0px" xmlns:cc="http://creativecommons.org/ns#" xmlns:xlink="http://www.w3.org/1999/xlink" xmlns:dc="http://purl.org/dc/elements/1.1/"><metadata id="metadata27"><rdf:RDF><cc:Work rdf:about=""><dc:format>image/svg+xml</dc:format><dc:type rdf:resource="http://purl.org/dc/dcmitype/StillImage"/><dc:title/></cc:Work></rdf:RDF></metadata><defs id="defs25"><linearGradient id="linearGradient5466" y2="37.142" gradientUnits="userSpaceOnUse" x2="13.248" gradientTransform="matrix(7.3871037,0,0,7.3871037,-37.918004,-217.22503)" y1="37.142" x1="5.133"><stop id="stop5462" stop-color="#004358" offset="0"/><stop id="stop5464" stop-color="#002f43" offset="1"/></linearGradient><linearGradient id="linearGradient5474" y2="37.142" gradientUnits="userSpaceOnUse" x2="33.506" gradientTransform="matrix(7.3871037,0,0,7.3871037,-37.918004,-217.22503)" y1="37.142" x1="14.578"><stop id="stop5470" stop-color="#1f8a70" offset="0"/><stop id="stop5472" stop-color="#0b765c" offset="1"/></linearGradient><linearGradient id="linearGradient5482" y2="37.142" gradientUnits="userSpaceOnUse" x2="46.469" gradientTransform="matrix(7.3871037,0,0,7.3871037,-37.918004,-217.22503)" y1="37.142" x1="37.147"><stop id="stop5478" stop-color="#bedb39" offset="0"/><stop id="stop5480" stop-color="#aac725" offset="1"/></linearGradient><linearGradient id="linearGradient5490" y2="37.142" gradientUnits="userSpaceOnUse" x2="50.315" gradientTransform="matrix(7.3871037,0,0,7.3871037,-37.918004,-217.22503)" y1="37.142" x1="47.127"><stop id="stop5486" stop-color="#ffe11a" offset="0"/><stop id="stop5488" stop-color="#ebcd06" offset="1"/></linearGradient><linearGradient id="linearGradient5498" y2="37.142" gradientUnits="userSpaceOnUse" x2="75.546" gradientTransform="matrix(7.3871037,0,0,7.3871037,-37.918004,-217.22503)" y1="37.142" x1="52.002"><stop id="stop5494" stop-color="#e96000" offset="0"/><stop id="stop5496" stop-color="#fd7400" offset="1"/></linearGradient><linearGradient id="linearGradient5506" y2="37.142" gradientUnits="userSpaceOnUse" x2="13.248" gradientTransform="matrix(7.3871037,0,0,7.3871037,-37.918004,-217.22503)" y1="37.142" x1="5.133"><stop id="stop5502" stop-color="#004358" stop-opacity="0.78431374" offset="0"/><stop id="stop5504" stop-color="#004358" stop-opacity="0.58823532" offset="1"/></linearGradient><linearGradient id="linearGradient5514" y2="37.142" gradientUnits="userSpaceOnUse" x2="33.506" gradientTransform="matrix(7.3871037,0,0,7.3871037,-37.918004,-217.22503)" y1="37.142" x1="14.578"><stop id="stop5510" stop-color="#1f8a70" stop-opacity="0.78431374" offset="0"/><stop id="stop5512" stop-color="#1f8a70" stop-opacity="0.58823532" offset="1"/></linearGradient><linearGradient id="linearGradient5522" y2="37.142" gradientUnits="userSpaceOnUse" x2="46.469" gradientTransform="matrix(7.3871037,0,0,7.3871037,-37.918004,-217.22503)" y1="37.142" x1="37.147"><stop id="stop5518" stop-color="#bedb39" stop-opacity="0.78431374" offset="0"/><stop id="stop5520" stop-color="#bedb39" stop-opacity="0.58823532" offset="1"/></linearGradient><linearGradient id="linearGradient5530" y2="37.142" gradientUnits="userSpaceOnUse" x2="50.315" gradientTransform="matrix(7.3871037,0,0,7.3871037,-37.918004,-217.22503)" y1="37.142" x1="47.127"><stop id="stop5526" stop-color="#ffe11a" stop-opacity="0.78431374" offset="0"/><stop id="stop5528" stop-color="#ffe11a" stop-opacity="0.58823532" offset="1"/></linearGradient><linearGradient id="linearGradient5538" y2="37.142" gradientUnits="userSpaceOnUse" x2="75.546" gradientTransform="matrix(7.3871037,0,0,7.3871037,-37.918004,-217.22503)" y1="37.142" x1="52.002"><stop id="stop5534" stop-color="#fd7400" stop-opacity="0.78431374" offset="0"/><stop id="stop5536" stop-color="#fd7400" stop-opacity="0.58823532" offset="1"/></linearGradient></defs><rect id="rect3" stroke-linejoin="miter" stroke-dasharray="none" height="111.34" width="56.991" stroke="url(#linearGradient5466)" stroke-miterlimit="4" y="1.4774" x="1.4774" stroke-width="2.9548" fill="url(#linearGradient5506)"/><rect id="rect7" stroke-linejoin="miter" stroke-dasharray="none" height="111.34" width="136.87" stroke="url(#linearGradient5474)" stroke-miterlimit="4" y="1.4774" x="71.252" stroke-width="2.9548" fill="url(#linearGradient5514)"/><rect id="rect11" stroke-linejoin="miter" stroke-dasharray="none" height="111.34" width="66.16" stroke="url(#linearGradient5482)" stroke-miterlimit="4" y="1.4774" x="237.84" stroke-width="2.6986" fill="url(#linearGradient5522)"/><rect id="rect15" stroke-linejoin="miter" stroke-dasharray="none" height="111.34" width="20.798" stroke="url(#linearGradient5490)" stroke-miterlimit="4" y="1.4774" x="311.59" stroke-width="2.7534" fill="url(#linearGradient5530)"/><rect id="rect19" stroke-linejoin="miter" stroke-dasharray="none" height="111.34" width="170.96" stroke="url(#linearGradient5498)" stroke-miterlimit="4" y="1.4774" x="347.7" stroke-width="2.9548" fill="url(#linearGradient5538)"/><g id="text3973" style="letter-spacing:0px;word-spacing:0px;" font-weight="normal" transform="translate(0,11.999999)" font-size="96.03234863px" font-style="normal" font-family="Sans" line-height="125%" fill="#1a1a1a"><path id="path5719" d="m152.92,121.52,16.787,0c6.3458,0.00007,11.426,1.5944,15.24,4.7829,3.8137,3.1886,5.7206,7.5807,5.7207,13.176-0.00005,5.6269-1.9069,10.128-5.7207,13.505-3.7826,3.3449-8.753,5.0173-14.911,5.0173h-9.425v29.682h-7.6901v-66.163m7.6901,29.776,8.3466,0c9.0343,0.00003,13.551-3.7825,13.551-11.348-0.00004-3.5011-1.2348-6.3302-3.7044-8.4872-2.4384-2.1569-5.5957-3.2354-9.4719-3.2355h-8.7217v23.07"/><path id="path5721" d="m259.37,121.52-20.679,37.841,0,28.322-7.6432,0,0-28.322-20.679-37.841,8.6748,0,15.802,29.776,15.849-29.776,8.6748,0"/><path id="path5723" d="m318.08,128.23-27.384,0,0,21.617,24.946,0,0,6.7054-24.946,0,0,31.135-7.6901,0,0-66.163,35.074,0,0,6.7054"/><path id="path5725" d="m384.06,187.68-36.012,0,0-66.163,7.6901,0,0,59.458,28.322,0,0,6.7054"/><path id="path5727" d="m447.65,187.68-34.559,0,0-66.163,34.277,0,0,6.7054-26.587,0,0,20.491,25.555,0,0,6.7054-25.555,0,0,25.555,26.868,0,0,6.7054"/><path id="path5729" d="m520.67,187.68-8.5341,0-16.787-27.103-16.646,27.103-8.5341,0,21.148-33.714-21.054-32.448,8.8155,0,16.271,26.212,16.412-26.212,8.4403,0-20.726,32.448,21.195,33.714"/></g></svg>
